<?xml version="1.0" encoding="UTF-8" standalone="no"?><!-- Generator: Gravit.io --><svg xmlns="http://www.w3.org/2000/svg" xmlns:xlink="http://www.w3.org/1999/xlink" style="isolation:isolate" viewBox="35.739 23.327 196.679 199.646" width="196.679pt" height="199.646pt"><g><path d=" M 130.627 135.708 C 130.604 136.308 130.57 136.905 130.525 137.505 C 130.398 139.206 130.198 140.904 129.915 142.586 C 128.967 148.228 128.298 154.108 128.413 159.836 C 128.481 163.265 128.837 166.913 129.868 170.202 C 130.39 171.872 131.143 173.598 132.223 175.005 C 131.84 172.743 131.683 170.388 131.61 168.205 C 131.474 164.011 131.662 159.768 131.989 155.586 C 132.464 149.525 133.786 143.189 136.513 137.697 C 134.524 137.125 132.555 136.467 130.627 135.708 Z  M 127.104 72.213 C 130.431 64.84 133.788 57.478 137.206 50.148 C 139.33 45.592 141.475 41.037 143.695 36.527 C 144.534 34.828 145.383 33.128 146.273 31.455 C 146.809 30.448 147.401 29.311 148.061 28.383 C 150.09 25.525 153.598 21.628 157.373 24.126 C 159.739 25.694 160.971 29.538 161.676 32.144 C 162.209 34.119 162.626 36.137 163.006 38.148 C 163.427 40.383 163.798 42.629 164.172 44.872 C 164.346 45.915 164.519 46.957 164.694 48 C 165.107 50.424 165.54 52.85 166.051 55.254 C 166.507 57.4 167.028 59.56 167.71 61.646 C 168.255 63.306 172.102 63.915 173.554 64.174 C 173.857 64.227 174.162 64.28 174.465 64.332 C 175.113 64.446 175.762 64.56 176.406 64.687 C 179.563 62.831 182.601 60.797 185.566 58.647 C 188.485 56.529 191.325 54.308 194.166 52.083 C 194.499 51.822 194.833 51.561 195.166 51.302 C 198.213 48.918 201.275 46.552 204.444 44.328 C 207.85 41.935 211.357 39.725 215.025 37.756 C 218.49 35.895 222.632 35.023 224.942 39.041 C 226.785 42.245 226.14 47.978 225.61 51.483 C 225.18 54.302 224.583 57.11 223.924 59.884 C 223.203 62.907 222.399 65.911 221.557 68.903 C 220.625 72.214 219.646 75.513 218.666 78.81 C 217.578 82.469 216.465 86.142 215.498 89.834 C 215.163 91.12 214.836 92.429 214.593 93.738 C 214.478 94.363 214.305 95.31 214.363 95.944 C 214.476 97.19 216.001 98.899 216.942 99.883 C 217.214 99.993 217.456 100.176 217.655 100.408 C 218.411 101.291 219.316 102.14 220.178 102.918 C 221.375 104 222.627 105.036 223.917 106.008 C 225.538 107.229 229.199 109.812 231.258 109.911 L 232.418 109.964 L 232.344 111.123 C 232.2 113.352 230.256 115.083 228.47 116.159 C 226.232 117.507 223.482 118.34 220.893 118.625 C 220.704 118.646 220.512 118.663 220.323 118.679 C 223.151 121.784 225.769 125.604 227.077 129.432 L 227.089 129.453 L 227.121 129.563 C 227.479 130.772 226.908 132.134 225.628 132.442 C 225.343 132.51 225.052 132.516 224.763 132.465 C 218.951 131.438 213.743 131.134 207.979 132.555 C 205.703 133.117 203.473 133.877 201.257 134.63 C 198.958 135.41 196.669 136.174 194.346 136.863 C 196.354 140.227 197.895 143.953 198.427 147.833 C 198.719 149.963 198.874 152.115 198.841 154.265 C 198.813 155.875 198.676 157.478 198.43 159.069 C 199.558 162.059 200.167 165.214 200.238 168.41 C 200.396 175.41 197.962 182.063 193.486 187.392 C 193.708 188.813 193.936 190.232 194.164 191.651 C 194.278 192.348 194.433 193.051 194.583 193.742 C 194.806 194.779 195.036 195.818 195.257 196.855 C 195.823 199.49 196.345 202.138 196.74 204.804 C 197.17 207.711 197.509 210.883 197.297 213.82 C 197.136 216.074 196.582 218.881 194.577 220.241 C 193.867 220.722 193.063 220.96 192.21 220.999 C 189.141 221.142 186.139 218.728 184.042 216.735 C 181.167 214.008 178.589 210.77 176.09 207.696 C 170.042 200.264 160.449 200.399 153.91 207.13 C 151.303 209.816 148.642 212.603 145.768 214.998 C 143.743 216.684 140.806 218.852 138.064 218.914 C 137.271 218.931 136.506 218.762 135.82 218.356 C 133.388 216.906 133.054 213.068 132.996 210.54 C 132.908 206.582 133.066 202.571 133.26 198.619 C 133.41 195.586 133.596 192.56 133.793 189.529 C 127.34 189.759 121.115 188.279 116.56 183.331 C 111.158 177.468 109.588 168.324 108.777 160.67 C 108.433 157.42 108.209 154.163 107.953 150.905 C 107.772 148.614 107.596 146.32 107.339 144.038 C 107.087 141.799 106.464 137.429 105.083 135.581 C 105.026 135.503 104.826 135.26 104.722 135.239 C 104.1 135.341 103.173 136.427 102.813 136.883 C 101.93 137.997 101.178 139.29 100.521 140.547 C 99.547 142.406 98.702 144.352 97.925 146.301 C 95.576 152.197 93.715 158.428 92.045 164.548 C 89.597 173.513 84.851 182.047 75.844 185.683 C 71.618 187.387 67.021 187.756 62.524 187.219 C 58.446 186.73 54.378 185.506 50.641 183.815 C 48.111 182.669 45.541 181.184 43.396 179.413 C 42.243 178.462 40.304 176.682 40.23 175.073 C 40.149 173.346 41.116 172.258 42.84 172.181 C 43.844 172.137 45.021 172.511 45.981 172.792 C 46.896 173.06 49.206 173.777 50.049 173.391 C 51.062 172.928 50.37 169.653 50.205 168.934 C 49.658 166.549 48.767 164.126 47.865 161.857 C 46.364 158.081 44.634 154.365 42.853 150.715 C 41.391 147.718 40.105 144.636 39.036 141.479 C 39.027 141.459 39.02 141.438 39.012 141.42 C 38.954 141.289 38.914 141.157 38.88 141.019 C 37.192 135.903 36.085 130.582 35.807 125.195 C 35.562 120.409 35.974 115.612 37.161 110.965 C 38.248 106.711 39.964 102.654 42.292 98.933 C 46.717 91.859 53.147 86.304 60.727 82.845 C 65.779 80.54 71.245 79.213 76.791 78.94 C 83.497 78.608 90.219 79.982 96.39 82.577 C 100.285 84.216 103.977 86.333 107.386 88.828 C 111.014 88.227 115.017 87.258 118.054 85.176 C 119.911 83.903 120.744 82.029 121.642 80.049 C 123.085 76.868 124.39 74.475 127.104 72.213 L 127.104 72.213 Z " fill-rule="evenodd" fill="rgb(87,47,46)"/><path d=" M 128.792 142.397 C 129.071 140.728 129.267 139.063 129.386 137.42 C 129.476 136.277 129.517 135.144 129.525 134.021 C 132.202 135.169 135.108 136.156 138.179 136.975 C 135.149 142.468 133.641 149.135 133.127 155.675 C 132.452 164.335 132.472 172.851 134.116 178.11 L 134.116 178.11 C 131.776 177.017 123.998 170.926 128.792 142.397 Z  M 43.259 99.537 C 38.872 106.553 36.438 115.214 36.948 125.136 C 37.2 130.038 38.172 135.246 39.979 140.707 C 40 140.796 40.021 140.882 40.061 140.971 C 40.076 141.008 40.091 141.042 40.106 141.08 C 41.111 144.051 42.358 147.101 43.877 150.214 C 52.642 168.18 52.736 173.419 50.523 174.429 C 49.347 174.969 47.318 174.373 45.66 173.889 C 44.569 173.569 43.616 173.291 42.891 173.321 C 41.884 173.368 41.313 173.842 41.37 175.02 C 41.443 176.64 45.389 180.184 51.111 182.774 C 54.469 184.292 58.474 185.585 62.659 186.084 C 66.873 186.59 71.285 186.292 75.418 184.625 C 81.953 181.985 87.754 175.94 90.943 164.246 C 95.147 148.85 98.872 140.019 101.918 136.175 C 102.926 134.896 103.8 134.235 104.54 134.114 C 105.061 134.031 105.548 134.305 105.999 134.899 C 107.136 136.432 107.986 139.571 108.475 143.91 C 108.717 146.078 108.904 148.399 109.09 150.815 C 110.447 167.992 111.118 189.987 135.017 188.324 C 134.573 194.999 133.996 204.226 134.137 210.515 C 134.237 214.967 135.262 217.835 138.039 217.772 C 142.073 217.682 147.649 211.937 153.091 206.337 C 160.133 199.087 170.51 199.032 176.976 206.979 C 182.202 213.403 187.623 220.065 192.159 219.86 C 200.295 219.482 193.818 196.638 193.038 191.833 C 192.796 190.322 192.559 188.864 192.279 187.048 C 196.678 181.995 199.256 175.494 199.097 168.435 C 199.024 165.19 198.378 162.076 197.255 159.192 C 197.505 157.663 197.667 156.025 197.698 154.246 C 197.727 152.338 197.608 150.264 197.297 147.987 C 196.737 143.911 194.984 139.889 192.58 136.188 C 205.744 132.487 209.795 128.664 224.961 131.342 C 225.095 131.366 225.229 131.363 225.361 131.333 C 225.929 131.196 226.223 130.547 226.026 129.886 C 226.017 129.867 224.272 123.919 217.628 117.545 C 223.825 118.047 230.973 114.658 231.205 111.05 C 227.321 110.866 219.157 103.917 216.789 101.15 C 216.642 100.984 216.494 100.91 216.341 100.903 C 214.681 99.192 213.36 97.524 213.226 96.049 C 213.019 93.814 215.1 86.795 217.571 78.486 C 221.895 63.939 227.363 45.546 223.952 39.608 C 222.477 37.051 219.834 36.468 215.565 38.761 C 207.493 43.098 201.205 48.023 194.869 52.983 C 189.233 57.393 183.565 61.838 176.62 65.884 C 176.599 65.885 176.583 65.886 176.567 65.886 C 175.818 65.728 175.049 65.592 174.27 65.457 C 170.943 64.88 167.372 64.258 166.628 62.001 C 165.081 57.272 164.036 51.019 163.046 45.06 C 161.512 35.841 160.089 27.29 156.743 25.08 C 154.632 23.682 152.134 24.616 148.99 29.043 C 145.728 33.643 129.43 69.833 128.036 72.928 C 125.033 75.353 123.814 78.022 122.68 80.523 C 121.697 82.684 120.782 84.688 118.7 86.117 C 115.389 88.384 111.052 89.403 107.095 90.031 C 103.599 87.428 99.846 85.272 95.948 83.629 C 89.794 81.043 83.273 79.763 76.849 80.079 C 71.4 80.349 66.085 81.652 61.2 83.883 C 53.941 87.195 47.634 92.543 43.259 99.537 L 43.259 99.537 Z " fill-rule="evenodd" fill="rgb(87,40,43)"/><path d=" M 45.105 101.017 C 49.278 94.347 55.311 89.239 62.25 86.072 C 66.933 83.938 72.022 82.684 77.231 82.424 C 83.331 82.125 89.534 83.348 95.405 85.814 C 98.328 87.042 101.165 88.58 103.864 90.386 C 102.532 90.462 101.3 90.43 100.298 90.245 C 99.643 90.123 99.166 90.306 98.848 90.728 C 98.333 91.424 98.524 92.631 99.301 94.005 C 99.861 95 100.758 96.191 101.889 97.344 C 103.302 98.787 104.92 99.954 106.714 100.616 C 102.046 102.141 97.536 104.704 94.304 107.826 C 93.879 108.237 93.883 109.004 94.306 109.541 C 94.513 109.796 94.778 109.955 95.049 110 C 98.755 110.962 102.413 112.214 105.906 114.526 C 114.689 120.342 113.844 125.665 125.28 131.96 C 125.951 132.328 126.642 132.681 127.347 133.028 C 127.354 134.325 127.316 135.631 127.221 136.941 C 127.104 138.507 126.915 140.093 126.645 141.69 C 120.761 176.712 134.328 180.576 134.372 180.589 C 134.547 180.639 134.719 180.641 134.876 180.602 C 135.149 182.021 135.209 183.892 135.135 186.045 C 134.987 185.984 134.827 185.957 134.667 185.966 C 113.083 187.512 112.524 166.962 111.258 150.92 C 111.064 148.448 110.875 146.076 110.632 143.923 C 110.09 139.115 109.064 135.514 107.614 133.577 C 106.576 132.191 105.351 131.551 103.951 131.78 C 102.762 131.977 101.502 132.853 100.191 134.507 C 94.208 142.074 89.136 159.178 81.311 160.265 C 75.675 161.047 73.234 154.679 71.323 149.693 C 70.055 146.388 68.978 143.588 67.068 142.89 C 65.852 142.444 65.127 142.902 64.7 143.989 C 64.311 144.988 64.286 146.551 64.257 148.396 C 64.187 152.873 64.088 159.265 58.204 159.053 C 49.336 158.73 46.213 150.801 43.259 143.314 C 42.889 142.381 42.525 141.452 42.106 140.445 C 40.318 135.124 39.363 130.065 39.12 125.312 L 39.12 125.312 C 38.635 115.894 40.945 107.674 45.105 101.017 Z  M 51.57 176.617 C 54.23 175.403 55.104 171.044 49.901 158.433 C 52.104 160.166 54.853 161.272 58.414 161.399 C 66.231 161.687 66.349 154.067 66.434 148.732 C 66.459 147.125 66.482 145.759 66.712 145.156 C 67.492 145.576 68.336 147.775 69.328 150.356 C 71.563 156.19 74.418 163.634 81.859 162.604 C 86.29 161.987 89.063 159.019 91.177 155.303 C 90.416 157.758 89.641 160.425 88.85 163.321 C 85.853 174.312 80.47 179.967 74.429 182.404 C 70.624 183.94 66.539 184.211 62.618 183.745 C 58.667 183.272 54.886 182.052 51.714 180.614 C 47.684 178.792 44.716 176.822 43.819 175.738 C 44.231 175.822 44.768 175.983 45.353 176.156 C 47.329 176.735 49.764 177.444 51.57 176.617 L 51.57 176.617 L 51.57 176.617 Z  M 138.176 136.975 C 135.15 142.468 133.637 149.133 133.126 155.675 C 132.451 164.332 132.47 172.851 134.118 178.107 C 131.777 177.017 123.997 170.923 128.792 142.397 C 129.071 140.724 129.269 139.063 129.389 137.42 C 129.474 136.274 129.517 135.141 129.522 134.019 C 132.201 135.167 135.106 136.154 138.176 136.975 L 138.176 136.975 L 138.176 136.975 Z  M 136.315 210.759 C 136.091 200.793 139.98 188.015 136.555 178.755 C 134.78 173.967 134.591 165.196 135.295 156.175 C 135.814 149.592 137.372 142.903 140.542 137.565 C 144.66 138.531 149.041 139.216 153.566 139.62 C 160.2 140.209 167.134 140.189 173.99 139.555 C 174.071 140.005 174.129 140.465 174.157 140.931 C 172.204 140.605 170.19 140.457 168.134 140.503 C 164.637 140.582 161.301 141.214 158.215 142.312 C 155.504 143.271 152.982 144.598 150.711 146.215 C 149.938 143.694 149.543 141.991 149.541 141.979 C 149.39 141.334 148.794 140.875 148.214 140.957 C 147.634 141.038 147.286 141.625 147.436 142.271 C 147.445 142.307 150.224 154.369 155.669 162.349 C 157.204 164.598 157.898 166.35 157.908 167.569 C 157.913 168.08 157.782 168.47 157.529 168.738 C 157.254 169.034 156.809 169.213 156.216 169.273 C 154.914 169.399 153.05 168.925 150.766 167.776 C 145.633 165.196 142.944 162.386 141.789 160.927 C 141.743 160.86 141.695 160.799 141.641 160.741 C 141.249 160.23 141.082 159.93 141.078 159.927 C 140.743 159.345 140.066 159.11 139.568 159.4 C 139.068 159.689 138.941 160.4 139.277 160.981 C 139.28 160.984 139.415 161.222 139.71 161.638 C 139.389 162.799 139.142 163.987 138.971 165.21 C 138.777 166.619 138.691 168.054 138.724 169.501 C 138.902 177.426 142.488 184.525 148.143 189.591 C 153.739 194.609 161.367 197.614 169.691 197.427 C 177.826 197.244 185.133 194.04 190.426 188.99 C 190.57 189.898 190.732 190.909 190.901 191.942 C 191.453 195.361 197.188 217.256 191.788 217.507 C 188.371 217.663 183.359 211.502 178.522 205.559 C 170.233 195.368 159.704 197.161 151.219 205.907 C 147.985 209.239 136.588 222.907 136.315 210.759 L 136.315 210.759 L 136.315 210.759 Z  M 160.586 167.928 C 160.54 165.893 161.359 164.018 162.714 162.633 C 164.099 161.218 166.035 160.313 168.191 160.265 C 170.299 160.217 172.212 160.996 173.602 162.294 C 174.947 163.554 175.803 165.315 175.847 167.29 C 175.893 169.324 175.08 171.2 173.719 172.585 C 172.335 174 170.399 174.904 168.247 174.953 C 166.136 175 164.223 174.218 162.834 172.923 C 161.487 171.662 160.63 169.903 160.586 167.928 L 160.586 167.928 L 160.586 167.928 Z  M 196.92 168.191 C 197.07 174.813 194.563 180.93 190.319 185.648 C 190.303 185.661 190.293 185.674 190.284 185.685 C 189.916 186.094 189.534 186.496 189.137 186.879 C 184.141 191.783 177.153 194.904 169.363 195.08 C 161.618 195.254 154.555 192.48 149.397 187.864 C 144.298 183.288 141.064 176.89 140.903 169.748 C 140.873 168.411 140.95 167.108 141.125 165.838 C 141.219 165.139 141.347 164.442 141.504 163.759 C 143.187 165.506 145.926 167.811 150.068 169.892 C 152.748 171.236 155.017 171.784 156.688 171.625 C 157.622 171.531 158.389 171.217 158.964 170.703 C 159.496 172.202 160.389 173.542 161.54 174.615 C 163.378 176.33 165.867 177.364 168.574 177.303 C 171.233 177.243 173.616 176.135 175.316 174.399 C 177.045 172.632 178.085 170.204 178.024 167.535 C 177.963 164.804 176.773 162.355 174.895 160.603 C 173.056 158.885 170.567 157.857 167.863 157.917 C 165.201 157.978 162.817 159.081 161.118 160.82 C 160.226 161.731 159.519 162.82 159.05 164.023 C 158.628 163.123 158.07 162.152 157.361 161.116 C 154.77 157.317 152.806 152.498 151.493 148.643 C 153.773 146.938 156.345 145.551 159.129 144.56 C 162.04 143.527 165.182 142.928 168.462 142.854 C 170.516 142.808 172.522 142.973 174.456 143.319 C 174.636 143.547 174.887 143.718 175.168 143.776 C 175.456 143.836 175.724 143.774 175.927 143.623 C 180.697 144.734 184.986 146.992 188.423 150.077 C 193.523 154.645 196.76 161.045 196.92 168.191 L 196.92 168.191 L 196.92 168.191 Z  M 195.153 148.039 C 195.444 150.158 195.551 152.102 195.521 153.894 C 195.512 154.425 195.491 154.938 195.456 155.44 C 193.932 152.793 191.979 150.401 189.683 148.341 C 185.991 145.036 181.417 142.6 176.347 141.38 C 176.207 137.502 174.539 134.299 172.644 131.463 C 172.617 131.417 172.584 131.368 172.551 131.325 C 171.961 130.45 171.354 129.612 170.762 128.801 C 169.198 126.642 167.779 124.684 167.422 122.925 C 167.194 121.799 167.34 121.106 167.759 120.782 C 168.284 120.376 169.258 120.354 170.537 120.659 C 171.993 121.009 173.766 121.779 175.694 122.896 C 180.404 125.627 185.911 130.337 189.891 135.906 C 189.946 136.014 190.012 136.108 190.089 136.189 C 192.678 139.878 194.587 143.937 195.153 148.039 L 195.153 148.039 L 195.153 148.039 Z  M 223.273 128.641 C 207.866 126.281 203.311 130.77 191.121 134.084 C 186.921 128.394 181.333 123.634 176.523 120.847 C 176.044 120.571 175.571 120.312 175.106 120.076 C 174.197 117.67 172.562 115.613 170.47 114.159 C 170.066 113.878 169.644 113.618 169.209 113.384 C 173.834 112.72 178.238 111.714 182.335 110.781 C 190.544 108.9 197.482 107.314 202.142 109.435 C 206.452 111.396 209.49 114.334 213.087 116.281 C 213.18 116.495 213.32 116.688 213.511 116.838 C 219.367 121.481 222.125 126.182 223.273 128.641 L 223.273 128.641 L 223.273 128.641 Z  M 140.101 117.669 C 138.28 118.438 136.303 118.816 135.037 118.77 C 134.753 118.758 134.526 118.725 134.379 118.673 C 133.746 118.444 133.052 117.213 132.511 115.79 C 131.836 114.01 131.478 112.08 131.757 111.289 L 131.831 111.074 C 132.295 109.732 132.648 108.706 138.414 110.543 C 141.717 111.594 143.324 112.286 144.017 112.861 C 144.215 113.022 144.173 113.252 144.1 113.552 L 144.105 113.551 C 144.089 113.618 144.08 113.696 144.073 113.771 C 144.065 114.03 144.007 114.289 143.912 114.534 C 143.397 115.872 141.841 116.938 140.101 117.669 L 140.101 117.669 L 140.101 117.669 Z  M 143.416 125.101 C 143.569 126.837 143.685 128.173 143.567 128.99 C 143.484 129.578 143.139 129.818 142.247 129.692 C 140.361 129.423 137.4 126.752 135.75 125.13 C 136.064 124.944 136.349 124.725 136.602 124.476 C 137.191 123.89 137.594 123.161 137.715 122.315 C 138.976 123.061 140.366 123.851 141.773 124.399 C 142.319 124.613 142.86 124.791 143.397 124.919 C 143.403 124.979 143.407 125.039 143.416 125.101 L 143.416 125.101 L 143.416 125.101 Z  M 166.345 118.807 C 165.294 119.62 164.876 121.034 165.298 123.143 C 165.77 125.474 167.364 127.675 169.122 130.095 C 169.511 130.628 169.902 131.171 170.295 131.732 C 169.465 132.475 168.516 133.094 167.483 133.547 C 166.217 134.106 164.814 134.432 163.337 134.465 C 160.696 134.524 158.266 133.633 156.405 132.116 C 154.979 130.948 153.885 129.413 153.283 127.659 C 153.547 127.686 153.816 127.701 154.089 127.695 C 155.677 127.659 157.096 127.001 158.108 125.968 C 159.148 124.905 159.775 123.438 159.739 121.82 C 159.737 121.762 159.736 121.705 159.73 121.644 C 160.975 121.436 162.076 120.846 162.905 119.999 C 163.946 118.932 164.572 117.466 164.536 115.847 C 164.523 115.29 164.432 114.753 164.274 114.241 C 166.206 114.39 167.988 115.053 169.469 116.084 C 170.51 116.809 171.402 117.718 172.101 118.767 C 171.627 118.602 171.168 118.466 170.728 118.359 C 168.872 117.918 167.346 118.032 166.345 118.807 L 166.345 118.807 L 166.345 118.807 Z  M 126.061 129.889 C 119.617 126.343 115.28 118.072 106.824 112.469 C 103.837 110.489 100.77 109.243 97.673 108.307 C 100.034 106.633 104.026 102.633 111.206 101.188 C 118.682 99.665 128.255 102.91 133.801 107.851 C 127.995 108.126 128.415 110.904 130.519 116.438 C 131.307 118.52 132.528 120.393 133.945 120.902 C 134.296 121.026 134.743 121.098 135.248 121.12 C 135.333 121.122 135.426 121.123 135.52 121.124 C 135.619 121.696 135.417 122.186 135.05 122.554 C 134.545 123.057 133.776 123.374 132.934 123.465 C 132.108 123.555 131.243 123.415 130.54 122.992 C 129.557 122.406 128.886 121.137 129.166 118.97 C 129.252 118.323 128.839 117.652 128.244 117.467 C 127.648 117.287 127.098 117.666 127.015 118.315 C 126.558 121.814 127.861 123.992 129.721 125.108 C 130.857 125.789 132.188 126.024 133.427 125.891 C 133.439 125.891 133.456 125.888 133.469 125.888 C 134.717 127.185 139.238 131.682 142.255 132.112 C 144.525 132.434 145.436 131.618 145.715 129.669 C 145.873 128.554 145.744 127.09 145.579 125.183 C 145.576 125.167 145.575 125.145 145.569 125.125 C 147.409 124.989 149.02 123.92 150.077 121.211 C 150.307 120.627 150.044 119.884 149.487 119.548 C 148.931 119.213 148.298 119.41 148.069 119.995 C 147.359 121.814 146.256 122.539 144.988 122.639 C 144.787 122.445 144.529 122.324 144.263 122.311 C 144.015 122.298 143.795 122.382 143.622 122.53 C 143.168 122.436 142.706 122.292 142.241 122.109 C 141.206 121.706 140.15 121.14 139.152 120.559 C 139.804 120.375 140.469 120.15 141.112 119.881 C 143.256 118.974 145.209 117.569 145.939 115.672 C 146.104 115.245 146.209 114.786 146.24 114.306 C 146.39 113.65 146.484 113.063 146.277 112.467 C 146.923 112.624 147.582 112.781 148.26 112.935 C 152.932 113.992 157.516 114.268 161.943 114.078 C 162.034 114.246 162.114 114.419 162.179 114.607 C 162.285 114.917 162.348 115.249 162.355 115.602 C 162.377 116.584 161.979 117.501 161.308 118.187 C 160.611 118.896 159.641 119.347 158.557 119.371 L 158.462 119.374 C 158.43 119.373 158.397 119.373 158.365 119.374 C 157.765 119.354 157.333 119.871 157.397 120.521 C 157.406 120.599 157.419 120.678 157.443 120.752 L 157.438 120.753 C 157.482 120.898 157.509 121.031 157.531 121.156 C 157.546 121.27 157.559 121.41 157.562 121.57 C 157.585 122.56 157.182 123.472 156.513 124.153 C 155.814 124.866 154.842 125.32 153.761 125.344 C 153.468 125.351 153.179 125.326 152.903 125.266 C 152.627 125.215 152.362 125.129 152.112 125.016 C 151.533 124.757 150.93 125.027 150.764 125.624 C 150.714 125.808 150.707 126.004 150.744 126.19 C 151.246 129.293 152.897 132.009 155.242 133.923 C 157.526 135.79 160.479 136.888 163.668 136.816 C 165.398 136.778 167.034 136.396 168.518 135.743 C 169.666 135.238 170.718 134.57 171.642 133.772 C 172.309 134.866 172.903 136.013 173.353 137.225 C 166.658 137.835 159.899 137.848 153.455 137.275 C 148.813 136.864 144.334 136.147 140.157 135.137 C 140.1 135.118 140.042 135.104 139.984 135.095 C 135.918 134.1 132.141 132.824 128.785 131.265 C 128.755 131.251 128.73 131.237 128.701 131.227 C 127.792 130.799 126.906 130.354 126.061 129.889 L 126.061 129.889 L 126.061 129.889 Z  M 227.471 112.431 C 216.254 119.529 212.062 111.521 202.758 107.281 C 197.427 104.858 190.188 106.514 181.627 108.467 C 166.722 111.873 152.128 113.808 137.731 107.566 C 126.98 102.906 121.806 96.728 109.698 99.595 C 107.213 99.013 104.91 97.348 103.237 95.641 C 102.276 94.661 101.538 93.689 101.096 92.907 C 101.067 92.854 101.035 92.808 101 92.77 C 102.845 93.011 104.806 92.853 106.762 92.471 C 106.776 92.478 106.785 92.49 106.802 92.499 C 111.954 91.968 115.818 91.023 120.02 88.155 C 122.531 86.436 123.553 84.187 124.656 81.767 C 125.703 79.465 126.832 76.992 129.561 74.819 C 129.596 74.808 129.631 74.793 129.666 74.774 C 151.958 64.225 165.062 66.464 172.276 67.693 C 174.036 67.997 175.459 68.242 176.645 68.242 C 176.697 68.253 176.752 68.267 176.806 68.279 L 176.806 68.276 C 177.041 68.327 177.283 68.3 177.495 68.182 C 184.745 63.997 190.535 59.462 196.287 54.959 C 202.57 50.04 208.8 45.158 216.73 40.897 C 219.735 39.286 221.411 39.38 222.142 40.654 C 224.978 45.589 219.683 63.412 215.492 77.512 C 212.954 86.055 210.808 93.274 211.059 95.98 C 211.278 98.398 213.121 100.661 215.31 102.867 C 215.362 102.972 215.429 103.072 215.511 103.166 C 217.917 105.977 223.951 110.945 227.618 112.334 C 227.57 112.369 227.52 112.396 227.471 112.431 L 227.471 112.431 L 227.471 112.431 Z  M 139.187 68.246 C 140.708 63.751 142.829 57.79 145.15 52.21 C 147.812 45.808 150.731 39.91 153.279 37.373 C 153.447 37.205 153.476 37.089 153.492 37.106 C 154.436 37.987 155.259 42.267 156.246 47.391 C 157.307 52.909 158.543 59.346 160.615 64.253 C 155.003 64.293 147.951 65.215 139.187 68.246 L 139.187 68.246 L 139.187 68.246 Z  M 164.59 62.525 C 164.84 63.28 165.209 63.917 165.677 64.454 C 164.801 64.377 163.881 64.32 162.909 64.284 C 160.761 59.612 159.47 52.9 158.371 47.204 C 157.292 41.591 156.391 36.904 154.794 35.41 C 153.813 34.49 152.794 34.451 151.7 35.54 C 148.944 38.285 145.893 44.414 143.145 51.023 C 140.425 57.568 137.989 64.59 136.443 69.227 C 136.444 69.231 136.442 69.238 136.442 69.241 C 134.784 69.874 133.064 70.579 131.285 71.365 C 135.478 62.099 148.045 34.472 150.777 30.626 C 153.163 27.264 154.741 26.345 155.796 27.044 C 158.146 28.598 159.472 36.581 160.905 45.18 C 161.914 51.242 162.975 57.595 164.59 62.525 L 164.59 62.525 L 164.59 62.525 Z  M 62.536 190.79 C 62.506 190.803 62.479 190.816 62.45 190.83 C 62.482 190.812 62.502 190.802 62.521 190.792 C 62.525 190.792 62.532 190.79 62.536 190.79 L 62.536 190.79 L 62.536 190.79 Z  M 62.541 190.785 C 62.541 190.785 62.541 190.785 62.538 190.785 L 62.541 190.785 L 62.541 190.785 L 62.541 190.785 Z  M 62.521 190.792 L 62.521 190.792 C 62.536 190.785 62.541 190.785 62.541 190.785 C 62.66 190.736 62.781 190.72 62.913 190.729 C 63.021 190.736 63.128 190.743 63.232 190.77 C 63.489 190.834 63.676 191.009 63.764 191.246 C 63.871 191.543 63.713 191.848 63.459 192.016 C 63.318 192.113 63.128 192.131 62.964 192.14 C 62.634 192.155 62.349 191.916 62.282 191.614 C 62.208 191.555 62.142 191.485 62.112 191.386 C 62.073 191.27 62.082 191.146 62.149 191.038 C 62.226 190.923 62.324 190.844 62.457 190.81 C 62.474 190.805 62.492 190.803 62.506 190.798 C 62.514 190.797 62.516 190.797 62.521 190.792 L 62.521 190.792 Z  M 221.226 89.258 L 221.226 89.258 C 222.146 89.236 222.177 90.619 221.257 90.64 C 220.333 90.661 220.302 89.278 221.226 89.258 L 221.226 89.258 Z  M 226.386 71.335 L 226.386 71.335 C 225.714 73.737 225.057 76.142 224.504 78.574 C 224.217 79.822 223.971 81.078 223.761 82.34 C 223.566 83.513 223.463 84.827 222.906 85.895 C 222.796 86.102 222.465 86.057 222.4 85.839 C 222.134 85.009 222.233 84.17 222.315 83.311 C 222.411 82.356 222.561 81.414 222.741 80.471 C 223.086 78.617 223.526 76.783 223.994 74.955 C 224.937 71.303 226.055 67.694 226.991 64.04 C 227.747 61.09 228.202 58.119 228.758 55.135 C 229.262 52.417 229.848 49.709 230.158 46.965 C 230.464 44.272 230.797 40.775 228.993 38.476 C 228.59 37.961 229.465 37.468 229.872 37.957 C 231.325 39.706 231.521 42.18 231.511 44.339 C 231.498 47.118 231.038 49.89 230.559 52.622 C 230.105 55.216 229.708 57.835 229.192 60.416 C 228.455 64.099 227.396 67.718 226.386 71.335 L 226.386 71.335 Z  M 168.793 191.767 L 168.793 191.767 C 167.735 192.497 166.411 192.619 165.141 192.659 C 163.9 192.698 162.646 192.543 161.442 192.253 C 158.95 191.66 156.67 190.412 154.648 188.907 C 150.353 185.714 147.146 181.19 144.948 176.448 C 144.16 174.741 143.426 172.976 143.229 171.107 C 143.207 170.892 143.51 170.881 143.586 171.051 C 144.549 173.249 145.379 175.47 146.565 177.576 C 147.878 179.904 149.434 182.135 151.221 184.147 C 154.555 187.893 159.033 191.378 164.366 191.587 C 165.812 191.642 167.213 191.26 168.646 191.282 C 168.924 191.287 169.016 191.619 168.793 191.767 L 168.793 191.767 Z  M 66.114 191.025 L 66.114 191.025 C 67.439 190.711 68.817 190.605 70.156 190.344 C 71.562 190.063 72.938 189.658 74.283 189.174 C 77.077 188.164 79.69 186.709 82.085 184.999 C 86.846 181.601 90.544 176.927 92.288 171.447 C 92.475 170.877 92.631 170.304 92.813 169.733 C 92.894 169.477 93.313 169.502 93.309 169.785 C 93.292 172.459 92.095 175.129 90.763 177.426 C 89.321 179.911 87.384 182.116 85.227 184.041 C 80.962 187.85 75.462 190.763 69.699 191.691 C 68.531 191.877 67.304 192.008 66.131 191.794 C 65.732 191.725 65.722 191.117 66.114 191.025 L 66.114 191.025 Z  M 195.802 110.893 L 195.802 110.893 C 197.345 110.374 199.294 110.933 200.742 111.491 C 202.422 112.142 203.948 112.993 205.088 114.361 C 205.289 114.6 204.938 114.837 204.714 114.744 C 203.271 114.149 201.993 113.273 200.562 112.643 C 199.843 112.326 199.082 112.098 198.307 111.941 C 197.485 111.773 196.649 111.813 195.821 111.685 C 195.383 111.615 195.437 111.016 195.802 110.893 L 195.802 110.893 Z  M 215.228 51.929 C 214.844 54.136 214.105 57.183 213.18 60.572 C 210.746 69.496 207.071 80.646 205.308 85.213 C 204.819 86.472 204.59 86.939 204.495 86.907 C 204.152 86.785 203.455 85.819 202.47 84.465 C 199.937 80.973 195.816 75.306 187.71 71.744 C 193.482 66.876 214.043 49.654 216.11 49.578 C 216.236 49.744 215.475 50.488 215.228 51.929 L 215.228 51.929 L 215.228 51.929 Z  M 204.062 89.138 L 204.062 89.138 C 203.004 88.756 202.098 87.509 200.825 85.756 C 198.272 82.24 193.993 76.351 185.252 73.157 C 184.663 72.944 184.287 72.272 184.408 71.661 C 184.457 71.415 184.578 71.22 184.738 71.082 C 184.819 71.012 213.33 46.795 216.2 47.243 C 216.253 47.253 216.308 47.266 216.386 47.286 C 217.663 47.668 217.876 49.661 217.363 52.639 C 216.958 54.963 216.205 58.077 215.271 61.5 C 212.829 70.464 209.117 81.716 207.325 86.352 C 206.356 88.861 205.381 89.61 204.062 89.138 L 204.062 89.138 Z  M 170.918 191.869 L 170.918 191.869 C 170.87 191.87 170.824 191.875 170.778 191.876 C 170.749 191.879 170.717 191.885 170.685 191.886 C 170.661 191.887 170.634 191.882 170.614 191.882 C 170.394 191.896 170.199 191.789 170.077 191.625 C 170.07 191.619 170.066 191.613 170.061 191.606 C 170.044 191.582 170.033 191.561 170.017 191.535 C 170.01 191.52 170.006 191.507 169.998 191.494 C 169.987 191.467 169.976 191.441 169.973 191.414 C 169.967 191.405 169.965 191.396 169.964 191.389 C 169.957 191.352 169.948 191.312 169.947 191.271 C 169.946 191.232 169.954 191.192 169.959 191.152 C 169.959 191.146 169.961 191.135 169.966 191.126 C 169.968 191.102 169.978 191.073 169.988 191.049 C 169.996 191.035 169.999 191.019 170.005 191.005 C 170.02 190.98 170.03 190.953 170.046 190.933 C 170.05 190.926 170.054 190.917 170.061 190.911 C 170.176 190.745 170.365 190.627 170.585 190.63 C 170.606 190.63 170.632 190.624 170.657 190.623 C 170.688 190.623 170.721 190.627 170.751 190.63 C 170.796 190.629 170.842 190.631 170.89 190.629 C 171.24 190.628 171.538 190.892 171.545 191.234 C 171.553 191.579 171.268 191.854 170.918 191.869 L 170.918 191.869 Z  M 43.397 127.868 L 43.397 127.868 C 43.416 127.845 43.432 127.829 43.451 127.807 C 43.556 127.7 43.695 127.643 43.841 127.632 C 43.888 127.621 43.934 127.615 43.985 127.619 C 43.953 127.615 44.136 127.625 44.196 127.641 C 44.355 127.688 44.413 127.726 44.542 127.829 C 44.637 127.914 44.702 128.026 44.742 128.145 C 44.78 128.274 44.783 128.406 44.75 128.536 C 44.697 128.684 44.677 128.754 44.561 128.867 C 44.411 129.021 44.236 129.073 44.028 129.094 C 43.957 129.103 43.86 129.087 43.773 129.061 C 43.734 129.055 43.698 129.048 43.658 129.038 C 43.36 128.974 43.142 128.698 43.136 128.408 C 43.13 128.195 43.233 127.996 43.397 127.868 L 43.397 127.868 Z  M 174.411 107.148 L 174.411 107.148 C 173.833 107.245 173.233 106.8 173.07 106.154 C 173.063 106.136 171.352 99.043 164.954 99.736 C 158.144 100.479 156.089 107.472 156.084 107.494 C 155.906 108.082 155.295 108.339 154.723 108.065 C 154.151 107.795 153.829 107.096 154.011 106.505 C 154.018 106.482 156.424 98.274 164.458 97.396 C 172.906 96.48 175.155 105.789 175.164 105.818 C 175.325 106.457 174.99 107.057 174.411 107.148 L 174.411 107.148 Z  M 54.654 93.371 L 54.654 93.371 C 58.828 89.748 63.923 87.304 69.294 85.823 C 71.993 85.082 74.798 84.575 77.609 84.525 C 79.898 84.485 82.753 84.752 84.589 86.214 C 84.905 86.469 85.059 86.732 85.229 87.088 C 85.269 87.171 85.207 87.294 85.099 87.26 C 84.05 86.933 83.098 86.38 82.033 86.068 C 80.818 85.708 79.542 85.591 78.277 85.575 C 75.456 85.542 72.65 86.058 69.942 86.781 C 64.524 88.232 59.429 90.734 55.263 94.409 C 51.112 98.072 48.066 102.777 46.149 107.867 C 45.18 110.452 44.466 113.152 44.061 115.875 C 43.824 117.463 43.61 119.053 43.522 120.662 C 43.434 122.269 43.711 123.868 43.614 125.464 C 43.596 125.792 43.14 125.97 42.948 125.655 C 42.092 124.271 42.19 122.458 42.252 120.897 C 42.32 119.237 42.546 117.583 42.79 115.939 C 43.218 113.03 43.966 110.171 45.011 107.412 C 47.03 102.074 50.267 97.187 54.654 93.371 L 54.654 93.371 Z  M 134.1 101.828 L 134.1 101.828 C 133.499 101.751 133.008 101.164 133.002 100.518 C 133.001 100.497 132.977 94.451 130.164 93.367 C 127.481 92.338 126.748 94.785 126.749 94.793 C 126.565 95.384 125.954 95.634 125.381 95.36 C 124.808 95.085 124.492 94.385 124.675 93.794 C 124.68 93.782 125.998 89.374 130.644 91.161 C 135.152 92.897 135.177 100.775 135.177 100.796 C 135.184 101.441 134.705 101.903 134.1 101.828 L 134.1 101.828 Z  M 43.259 99.535 C 38.872 106.551 36.438 115.211 36.948 125.135 C 37.197 130.037 38.17 135.244 39.979 140.705 C 39.999 140.794 40.021 140.882 40.06 140.971 C 40.074 141.006 40.089 141.042 40.105 141.077 C 41.108 144.051 42.358 147.098 43.876 150.211 C 52.64 168.183 52.736 173.419 50.521 174.429 C 49.348 174.963 47.316 174.37 45.66 173.889 C 44.569 173.566 43.615 173.288 42.892 173.317 C 41.885 173.366 41.312 173.842 41.368 175.019 C 41.443 176.638 45.39 180.183 51.111 182.774 C 54.467 184.291 58.471 185.583 62.659 186.084 C 66.873 186.588 71.283 186.289 75.418 184.623 C 81.953 181.985 87.755 175.939 90.944 164.248 C 95.145 148.85 98.872 140.018 101.916 136.174 C 102.929 134.894 103.803 134.232 104.54 134.112 C 105.061 134.029 105.55 134.304 105.996 134.899 C 107.137 136.433 107.986 139.571 108.475 143.912 C 108.717 146.075 108.902 148.396 109.093 150.815 C 110.446 167.992 111.118 189.985 135.017 188.32 C 134.572 194.997 133.996 204.224 134.137 210.515 C 134.237 214.967 135.262 217.835 138.04 217.772 C 142.073 217.682 147.648 211.937 153.088 206.334 C 160.13 199.087 170.511 199.03 176.973 206.976 C 182.204 213.403 187.624 220.065 192.16 219.856 C 200.295 219.48 193.816 196.637 193.037 191.833 C 192.796 190.32 192.559 188.864 192.281 187.043 C 196.68 181.992 199.257 175.491 199.098 168.438 C 199.025 165.188 198.377 162.078 197.252 159.188 C 197.505 157.663 197.664 156.025 197.696 154.246 C 197.729 152.34 197.611 150.264 197.298 147.987 C 196.735 143.911 194.982 139.889 192.58 136.187 C 205.745 132.485 209.795 128.664 224.961 131.34 C 225.094 131.366 225.228 131.362 225.363 131.332 C 225.929 131.193 226.222 130.544 226.025 129.886 C 226.017 129.868 224.271 123.919 217.627 117.545 C 223.826 118.047 230.97 114.658 231.203 111.05 C 227.322 110.865 219.158 103.916 216.788 101.148 C 216.641 100.98 216.491 100.908 216.342 100.9 C 214.68 99.192 213.358 97.523 213.225 96.046 C 213.017 93.811 215.102 86.793 217.571 78.487 C 221.896 63.934 227.36 45.547 223.95 39.61 C 222.477 37.049 219.837 36.466 215.566 38.759 C 207.491 43.094 201.205 48.021 194.868 52.98 C 189.233 57.393 183.563 61.837 176.619 65.882 C 176.601 65.883 176.583 65.883 176.564 65.883 C 175.816 65.724 175.049 65.592 174.269 65.454 C 170.944 64.877 167.371 64.255 166.628 62 C 165.081 57.271 164.038 51.019 163.046 45.057 C 161.513 35.839 160.088 27.289 156.744 25.077 C 154.632 23.68 152.135 24.614 148.99 29.043 C 145.726 33.64 129.43 69.833 128.039 72.924 C 125.035 75.351 123.815 78.022 122.682 80.519 C 121.697 82.681 120.782 84.686 118.697 86.118 C 115.388 88.382 111.049 89.403 107.093 90.031 C 103.597 87.424 99.843 85.269 95.949 83.629 C 89.795 81.044 83.274 79.761 76.849 80.077 C 71.4 80.347 66.085 81.652 61.2 83.881 C 53.941 87.195 47.632 92.542 43.259 99.535 L 43.259 99.535 Z " fill-rule="evenodd" fill="rgb(87,47,46)"/><path d=" M 185.252 73.157 C 184.663 72.944 184.287 72.272 184.408 71.661 C 184.457 71.415 184.578 71.22 184.738 71.082 C 184.819 71.012 213.33 46.795 216.2 47.243 C 216.253 47.253 216.308 47.266 216.386 47.286 C 217.663 47.668 217.876 49.661 217.363 52.639 C 216.958 54.963 216.205 58.077 215.271 61.5 C 212.829 70.464 209.117 81.716 207.325 86.352 C 206.356 88.861 205.381 89.61 204.062 89.138 C 203.004 88.756 202.098 87.509 200.825 85.756 L 200.825 85.756 C 198.272 82.24 193.993 76.351 185.252 73.157 Z  M 164.458 97.396 C 172.906 96.48 175.155 105.789 175.164 105.818 C 175.325 106.457 174.99 107.057 174.411 107.148 C 173.833 107.245 173.233 106.8 173.07 106.154 C 173.063 106.136 171.352 99.043 164.954 99.736 C 158.144 100.479 156.089 107.472 156.084 107.494 C 155.906 108.082 155.295 108.339 154.723 108.065 C 154.151 107.795 153.829 107.096 154.011 106.505 C 154.018 106.482 156.424 98.274 164.458 97.396 L 164.458 97.396 L 164.458 97.396 Z  M 135.177 100.796 C 135.184 101.441 134.705 101.903 134.1 101.828 C 133.499 101.751 133.008 101.164 133.002 100.518 C 133.001 100.497 132.977 94.451 130.164 93.367 C 127.481 92.338 126.748 94.785 126.749 94.793 C 126.565 95.384 125.954 95.634 125.381 95.36 C 124.808 95.085 124.492 94.385 124.675 93.794 C 124.68 93.782 125.998 89.374 130.644 91.161 C 135.152 92.897 135.177 100.775 135.177 100.796 L 135.177 100.796 L 135.177 100.796 Z  M 129.666 74.774 C 129.631 74.793 129.596 74.808 129.561 74.819 C 126.832 76.992 125.703 79.465 124.656 81.767 C 123.553 84.187 122.531 86.436 120.02 88.155 C 115.818 91.023 111.954 91.968 106.802 92.499 C 106.785 92.49 106.776 92.478 106.762 92.471 C 104.806 92.853 102.845 93.011 101 92.77 C 101.035 92.808 101.067 92.854 101.096 92.907 C 101.538 93.689 102.276 94.661 103.237 95.641 C 104.91 97.348 107.213 99.013 109.698 99.595 C 121.806 96.728 126.98 102.906 137.731 107.566 C 152.128 113.808 166.722 111.873 181.627 108.467 C 190.188 106.514 197.427 104.858 202.758 107.281 C 212.062 111.521 216.254 119.529 227.471 112.431 C 227.52 112.396 227.57 112.369 227.618 112.334 C 223.951 110.945 217.917 105.977 215.511 103.166 C 215.429 103.072 215.362 102.972 215.31 102.867 C 213.121 100.661 211.278 98.398 211.059 95.98 C 210.808 93.274 212.954 86.055 215.492 77.512 C 219.683 63.412 224.978 45.589 222.142 40.654 C 221.411 39.38 219.735 39.286 216.73 40.897 C 208.8 45.158 202.57 50.04 196.287 54.959 C 190.535 59.462 184.745 63.997 177.495 68.182 C 177.283 68.3 177.041 68.327 176.806 68.276 L 176.806 68.279 C 176.752 68.267 176.697 68.253 176.645 68.242 C 175.459 68.242 174.036 67.997 172.276 67.693 C 165.062 66.464 151.958 64.225 129.666 74.774 L 129.666 74.774 Z " fill-rule="evenodd" fill="rgb(243,134,54)"/><path d=" M 195.821 111.685 C 195.383 111.615 195.437 111.016 195.802 110.893 C 197.345 110.374 199.294 110.933 200.742 111.491 C 202.422 112.142 203.948 112.993 205.088 114.361 C 205.289 114.6 204.938 114.837 204.714 114.744 C 203.271 114.149 201.993 113.273 200.562 112.643 C 199.843 112.326 199.082 112.098 198.307 111.941 L 198.307 111.941 C 197.485 111.773 196.649 111.813 195.821 111.685 Z  M 169.209 113.384 C 169.644 113.618 170.066 113.878 170.47 114.159 C 172.562 115.613 174.197 117.67 175.106 120.076 C 175.571 120.312 176.044 120.571 176.523 120.847 C 181.333 123.634 186.921 128.394 191.121 134.084 C 203.311 130.77 207.866 126.281 223.273 128.641 C 222.125 126.182 219.367 121.481 213.511 116.838 C 213.32 116.688 213.18 116.495 213.087 116.281 C 209.49 114.334 206.452 111.396 202.142 109.435 C 197.482 107.314 190.544 108.9 182.335 110.781 C 178.238 111.714 173.834 112.72 169.209 113.384 L 169.209 113.384 Z " fill-rule="evenodd" fill="rgb(254,254,254)"/><path d=" M 204.755 110.813 C 207.781 112.608 210.262 114.754 213.087 116.281 C 213.18 116.495 213.32 116.688 213.511 116.838 C 219.367 121.481 222.125 126.182 223.273 128.641 C 207.866 126.281 203.311 130.77 191.121 134.084 C 188.847 131.006 186.172 128.198 183.431 125.831 C 192.169 122.221 199.708 117.485 202.982 113.896 C 203.545 114.202 204.114 114.494 204.714 114.744 C 204.938 114.837 205.289 114.6 205.088 114.361 C 204.669 113.862 204.202 113.429 203.69 113.052 C 204.196 112.385 204.525 111.771 204.656 111.227 C 204.688 111.095 204.722 110.955 204.755 110.813 Z " fill-rule="evenodd" fill="rgb(218,196,184)"/><path d=" M 166.345 118.807 C 165.294 119.62 164.876 121.034 165.298 123.143 C 165.77 125.474 167.364 127.675 169.122 130.095 C 169.511 130.628 169.902 131.171 170.295 131.732 C 169.465 132.475 168.516 133.094 167.483 133.547 C 166.217 134.106 164.814 134.432 163.337 134.465 C 160.696 134.524 158.266 133.633 156.405 132.116 C 154.979 130.948 153.885 129.413 153.283 127.659 C 153.547 127.686 153.816 127.701 154.089 127.695 C 155.677 127.659 157.096 127.001 158.108 125.968 C 159.148 124.905 159.775 123.438 159.739 121.82 C 159.737 121.762 159.736 121.705 159.73 121.644 C 160.975 121.436 162.076 120.846 162.905 119.999 C 163.946 118.932 164.572 117.466 164.536 115.847 C 164.523 115.29 164.432 114.753 164.274 114.241 C 166.206 114.39 167.988 115.053 169.469 116.084 C 170.51 116.809 171.402 117.718 172.101 118.767 C 171.627 118.602 171.168 118.466 170.728 118.359 C 168.872 117.918 167.346 118.032 166.345 118.807 Z " fill-rule="evenodd" fill="rgb(221,74,57)"/><path d=" M 158.365 119.374 C 157.765 119.354 157.333 119.871 157.397 120.521 C 157.406 120.599 157.419 120.678 157.443 120.752 L 157.438 120.753 C 157.482 120.898 157.509 121.031 157.531 121.156 C 157.546 121.27 157.559 121.41 157.562 121.57 C 157.585 122.56 157.182 123.472 156.513 124.153 C 155.814 124.866 154.842 125.32 153.761 125.344 C 153.468 125.351 153.179 125.326 152.903 125.266 C 152.627 125.215 152.362 125.129 152.112 125.016 C 151.533 124.757 150.93 125.027 150.764 125.624 C 150.714 125.808 150.707 126.004 150.744 126.19 C 151.246 129.293 152.897 132.009 155.242 133.923 C 157.526 135.79 160.479 136.888 163.668 136.816 C 165.398 136.778 167.034 136.396 168.518 135.743 C 169.666 135.238 170.718 134.57 171.642 133.772 C 172.309 134.866 172.903 136.013 173.353 137.225 C 166.658 137.835 159.899 137.848 153.455 137.275 C 148.813 136.864 144.334 136.147 140.157 135.137 C 140.1 135.118 140.042 135.104 139.984 135.095 C 135.918 134.1 132.141 132.824 128.785 131.265 C 128.755 131.251 128.73 131.237 128.701 131.227 C 127.792 130.799 126.906 130.354 126.061 129.889 C 119.617 126.343 115.28 118.072 106.824 112.469 C 103.837 110.489 100.77 109.243 97.673 108.307 C 100.034 106.633 104.026 102.633 111.206 101.188 C 118.682 99.665 128.255 102.91 133.801 107.851 C 127.995 108.126 128.415 110.904 130.519 116.438 C 131.307 118.52 132.528 120.393 133.945 120.902 C 134.296 121.026 134.743 121.098 135.248 121.12 C 135.333 121.122 135.426 121.123 135.52 121.124 C 135.619 121.696 135.417 122.186 135.05 122.554 C 134.545 123.057 133.776 123.374 132.934 123.465 C 132.108 123.555 131.243 123.415 130.54 122.992 C 129.557 122.406 128.886 121.137 129.166 118.97 C 129.252 118.323 128.839 117.652 128.244 117.467 C 127.648 117.287 127.098 117.666 127.015 118.315 C 126.558 121.814 127.861 123.992 129.721 125.108 C 130.857 125.789 132.188 126.024 133.427 125.891 C 133.439 125.891 133.456 125.888 133.469 125.888 C 134.717 127.185 139.238 131.682 142.255 132.112 C 144.525 132.434 145.436 131.618 145.715 129.669 C 145.873 128.554 145.744 127.09 145.579 125.183 C 145.576 125.167 145.575 125.145 145.569 125.125 C 147.409 124.989 149.02 123.92 150.077 121.211 C 150.307 120.627 150.044 119.884 149.487 119.548 C 148.931 119.213 148.298 119.41 148.069 119.995 C 147.359 121.814 146.256 122.539 144.988 122.639 C 144.787 122.445 144.529 122.324 144.263 122.311 C 144.015 122.298 143.795 122.382 143.622 122.53 C 143.168 122.436 142.706 122.292 142.241 122.109 C 141.206 121.706 140.15 121.14 139.152 120.559 C 139.804 120.375 140.469 120.15 141.112 119.881 C 143.256 118.974 145.209 117.569 145.939 115.672 C 146.104 115.245 146.209 114.786 146.24 114.306 C 146.39 113.65 146.484 113.063 146.277 112.467 C 146.923 112.624 147.582 112.781 148.26 112.935 C 152.932 113.992 157.516 114.268 161.943 114.078 C 162.034 114.246 162.114 114.419 162.179 114.607 C 162.285 114.917 162.348 115.249 162.355 115.602 C 162.377 116.584 161.979 117.501 161.308 118.187 C 160.611 118.896 159.641 119.347 158.557 119.371 L 158.462 119.374 C 158.43 119.373 158.397 119.373 158.365 119.374 Z " fill-rule="evenodd" fill="rgb(254,254,254)"/><path d=" M 152.905 131.434 C 153.568 132.362 154.353 133.202 155.242 133.923 C 157.526 135.79 160.479 136.888 163.668 136.816 C 165.398 136.778 167.034 136.396 168.518 135.743 C 169.666 135.238 170.718 134.57 171.642 133.772 C 172.309 134.866 172.903 136.013 173.353 137.225 C 166.658 137.835 159.899 137.848 153.455 137.275 C 148.813 136.864 144.334 136.147 140.157 135.137 C 140.1 135.118 140.042 135.104 139.984 135.095 C 135.918 134.1 132.141 132.824 128.785 131.265 C 128.755 131.251 128.73 131.237 128.701 131.227 C 127.792 130.799 126.906 130.354 126.061 129.889 C 121.8 127.543 118.458 123.132 114.242 118.793 C 115.324 119.418 116.454 120.138 117.63 120.961 C 124.739 125.933 131.292 128.71 138.256 130.139 C 139.626 131.132 141.056 131.942 142.255 132.112 C 143.832 132.334 144.753 132.009 145.263 131.135 C 147.717 131.344 150.252 131.434 152.905 131.434 Z " fill-rule="evenodd" fill="rgb(218,196,184)"/><path d=" M 143.416 125.101 C 143.569 126.837 143.685 128.173 143.567 128.99 C 143.484 129.578 143.139 129.818 142.247 129.692 C 140.361 129.423 137.4 126.752 135.75 125.13 C 136.064 124.944 136.349 124.725 136.602 124.476 C 137.191 123.89 137.594 123.161 137.715 122.315 C 138.976 123.061 140.366 123.851 141.773 124.399 C 142.319 124.613 142.86 124.791 143.397 124.919 C 143.403 124.979 143.407 125.039 143.416 125.101 Z " fill-rule="evenodd" fill="rgb(152,72,53)"/><path d=" M 140.101 117.669 C 138.28 118.438 136.303 118.816 135.037 118.77 C 134.753 118.758 134.526 118.725 134.379 118.673 C 133.746 118.444 133.052 117.213 132.511 115.79 C 131.836 114.01 131.478 112.08 131.757 111.289 L 131.831 111.074 C 132.295 109.732 132.648 108.706 138.414 110.543 C 141.717 111.594 143.324 112.286 144.017 112.861 C 144.215 113.022 144.173 113.252 144.1 113.552 L 144.105 113.551 C 144.089 113.618 144.08 113.696 144.073 113.771 C 144.065 114.03 144.007 114.289 143.912 114.534 C 143.397 115.872 141.841 116.938 140.101 117.669 Z " fill-rule="evenodd" fill="rgb(152,72,53)"/><path d=" M 170.762 128.801 C 169.198 126.642 167.779 124.684 167.422 122.925 C 167.194 121.799 167.34 121.106 167.759 120.782 C 168.284 120.376 169.258 120.354 170.537 120.659 C 171.993 121.009 173.766 121.779 175.694 122.896 C 180.404 125.627 185.911 130.337 189.891 135.906 C 189.946 136.014 190.012 136.108 190.089 136.189 C 192.678 139.878 194.587 143.937 195.153 148.039 C 195.444 150.158 195.551 152.102 195.521 153.894 C 195.512 154.425 195.491 154.938 195.456 155.44 C 193.932 152.793 191.979 150.401 189.683 148.341 C 185.991 145.036 181.417 142.6 176.347 141.38 C 176.207 137.502 174.539 134.299 172.644 131.463 C 172.617 131.417 172.584 131.368 172.551 131.325 C 171.961 130.45 171.354 129.612 170.762 128.801 Z " fill-rule="evenodd" fill="rgb(243,134,54)"/><path d=" M 168.793 191.767 C 167.735 192.497 166.411 192.619 165.141 192.659 C 163.9 192.698 162.646 192.543 161.442 192.253 C 158.95 191.66 156.67 190.412 154.648 188.907 C 150.353 185.714 147.146 181.19 144.948 176.448 C 144.16 174.741 143.426 172.976 143.229 171.107 C 143.207 170.892 143.51 170.881 143.586 171.051 C 144.549 173.249 145.379 175.47 146.565 177.576 C 147.878 179.904 149.434 182.135 151.221 184.147 C 154.555 187.893 159.033 191.378 164.366 191.587 C 165.812 191.642 167.213 191.26 168.646 191.282 L 168.646 191.282 C 168.924 191.287 169.016 191.619 168.793 191.767 Z  M 170.751 190.63 C 170.796 190.629 170.842 190.631 170.89 190.629 C 171.24 190.628 171.538 190.892 171.545 191.234 C 171.553 191.579 171.268 191.854 170.918 191.869 C 170.87 191.87 170.824 191.875 170.778 191.876 C 170.749 191.879 170.717 191.885 170.685 191.886 C 170.661 191.887 170.634 191.882 170.614 191.882 C 170.394 191.896 170.199 191.789 170.077 191.625 C 170.07 191.619 170.066 191.613 170.061 191.606 C 170.044 191.582 170.033 191.561 170.017 191.535 C 170.01 191.52 170.006 191.507 169.998 191.494 C 169.987 191.467 169.976 191.441 169.973 191.414 C 169.967 191.405 169.965 191.396 169.964 191.389 C 169.957 191.352 169.948 191.312 169.947 191.271 C 169.946 191.232 169.954 191.192 169.959 191.152 C 169.959 191.146 169.961 191.135 169.966 191.126 C 169.968 191.102 169.978 191.073 169.988 191.049 C 169.996 191.035 169.999 191.019 170.005 191.005 C 170.02 190.98 170.03 190.953 170.046 190.933 C 170.05 190.926 170.054 190.917 170.061 190.911 C 170.176 190.745 170.365 190.627 170.585 190.63 C 170.606 190.63 170.632 190.624 170.657 190.623 C 170.688 190.623 170.721 190.627 170.751 190.63 L 170.751 190.63 L 170.751 190.63 Z  M 159.129 144.56 C 156.345 145.551 153.773 146.938 151.493 148.643 C 152.806 152.498 154.77 157.317 157.361 161.116 C 158.07 162.152 158.628 163.123 159.05 164.023 C 159.519 162.82 160.226 161.731 161.118 160.82 C 162.817 159.081 165.201 157.978 167.863 157.917 C 170.567 157.857 173.056 158.885 174.895 160.603 C 176.773 162.355 177.963 164.804 178.024 167.535 C 178.085 170.204 177.045 172.632 175.316 174.399 C 173.616 176.135 171.233 177.243 168.574 177.303 C 165.867 177.364 163.378 176.33 161.54 174.615 C 160.389 173.542 159.496 172.202 158.964 170.703 C 158.389 171.217 157.622 171.531 156.688 171.625 C 155.017 171.784 152.748 171.236 150.068 169.892 C 145.926 167.811 143.187 165.506 141.504 163.759 C 141.347 164.442 141.219 165.139 141.125 165.838 C 140.95 167.108 140.873 168.411 140.903 169.748 C 141.064 176.89 144.298 183.288 149.397 187.864 C 154.555 192.48 161.618 195.254 169.363 195.08 C 177.153 194.904 184.141 191.783 189.137 186.879 C 189.534 186.496 189.916 186.094 190.284 185.685 C 190.293 185.674 190.303 185.661 190.319 185.648 C 194.563 180.93 197.07 174.813 196.92 168.191 C 196.76 161.045 193.523 154.645 188.423 150.077 C 184.986 146.992 180.697 144.734 175.927 143.623 C 175.724 143.774 175.456 143.836 175.168 143.776 C 174.887 143.718 174.636 143.547 174.456 143.319 C 172.522 142.973 170.516 142.808 168.462 142.854 C 165.182 142.928 162.04 143.527 159.129 144.56 L 159.129 144.56 Z " fill-rule="evenodd" fill="rgb(221,74,57)"/><path d=" M 147.436 142.271 C 147.445 142.307 150.224 154.369 155.669 162.349 C 157.204 164.598 157.898 166.35 157.908 167.569 C 157.913 168.08 157.782 168.47 157.529 168.738 C 157.254 169.034 156.809 169.213 156.216 169.273 C 154.914 169.399 153.05 168.925 150.766 167.776 C 145.633 165.196 142.944 162.386 141.789 160.927 C 141.743 160.86 141.695 160.799 141.641 160.741 C 141.249 160.23 141.082 159.93 141.078 159.927 C 140.743 159.345 140.066 159.11 139.568 159.4 C 139.068 159.689 138.941 160.4 139.277 160.981 C 139.28 160.984 139.415 161.222 139.71 161.638 C 139.389 162.799 139.142 163.987 138.971 165.21 C 138.777 166.619 138.691 168.054 138.724 169.501 C 138.902 177.426 142.488 184.525 148.143 189.591 C 153.739 194.609 161.367 197.614 169.691 197.427 C 177.826 197.244 185.133 194.04 190.426 188.99 C 190.57 189.898 190.732 190.909 190.901 191.942 C 191.453 195.361 197.188 217.256 191.788 217.507 C 188.371 217.663 183.359 211.502 178.522 205.559 C 170.233 195.368 159.704 197.161 151.219 205.907 C 147.985 209.239 136.588 222.907 136.315 210.759 C 136.091 200.793 139.98 188.015 136.555 178.755 C 134.78 173.967 134.591 165.196 135.295 156.175 C 135.814 149.592 137.372 142.903 140.542 137.565 C 144.66 138.531 149.041 139.216 153.566 139.62 C 160.2 140.209 167.134 140.189 173.99 139.555 C 174.071 140.005 174.129 140.465 174.157 140.931 C 172.204 140.605 170.19 140.457 168.134 140.503 C 164.637 140.582 161.301 141.214 158.215 142.312 C 155.504 143.271 152.982 144.598 150.711 146.215 C 149.938 143.694 149.543 141.991 149.541 141.979 C 149.39 141.334 148.794 140.875 148.214 140.957 C 147.634 141.038 147.286 141.625 147.436 142.271 Z " fill-rule="evenodd" fill="rgb(243,134,54)"/><path d=" M 44.75 128.536 C 44.697 128.684 44.677 128.754 44.561 128.867 C 44.411 129.021 44.236 129.073 44.028 129.094 C 43.957 129.103 43.86 129.087 43.773 129.061 C 43.734 129.055 43.698 129.048 43.658 129.038 C 43.36 128.974 43.142 128.698 43.136 128.408 C 43.13 128.195 43.233 127.996 43.397 127.868 C 43.416 127.845 43.432 127.829 43.451 127.807 C 43.556 127.7 43.695 127.643 43.841 127.632 C 43.888 127.621 43.934 127.615 43.985 127.619 C 43.953 127.615 44.136 127.625 44.196 127.641 C 44.355 127.688 44.413 127.726 44.542 127.829 C 44.637 127.914 44.702 128.026 44.742 128.145 L 44.742 128.145 C 44.78 128.274 44.783 128.406 44.75 128.536 Z  M 85.229 87.088 C 85.269 87.171 85.207 87.294 85.099 87.26 C 84.05 86.933 83.098 86.38 82.033 86.068 C 80.818 85.708 79.542 85.591 78.277 85.575 C 75.456 85.542 72.65 86.058 69.942 86.781 C 64.524 88.232 59.429 90.734 55.263 94.409 C 51.112 98.072 48.066 102.777 46.149 107.867 C 45.18 110.452 44.466 113.152 44.061 115.875 C 43.824 117.463 43.61 119.053 43.522 120.662 C 43.434 122.269 43.711 123.868 43.614 125.464 C 43.596 125.792 43.14 125.97 42.948 125.655 C 42.092 124.271 42.19 122.458 42.252 120.897 C 42.32 119.237 42.546 117.583 42.79 115.939 C 43.218 113.03 43.966 110.171 45.011 107.412 C 47.03 102.074 50.267 97.187 54.654 93.371 C 58.828 89.748 63.923 87.304 69.294 85.823 C 71.993 85.082 74.798 84.575 77.609 84.525 C 79.898 84.485 82.753 84.752 84.589 86.214 C 84.905 86.469 85.059 86.732 85.229 87.088 L 85.229 87.088 L 85.229 87.088 Z  M 126.645 141.69 C 126.915 140.093 127.104 138.507 127.221 136.941 C 127.316 135.631 127.354 134.325 127.347 133.028 C 126.642 132.681 125.951 132.328 125.28 131.96 C 113.844 125.665 114.689 120.342 105.906 114.526 C 102.413 112.214 98.755 110.962 95.049 110 C 94.778 109.955 94.513 109.796 94.306 109.541 C 93.883 109.004 93.879 108.237 94.304 107.826 C 97.536 104.704 102.046 102.141 106.714 100.616 C 104.92 99.954 103.302 98.787 101.889 97.344 C 100.758 96.191 99.861 95 99.301 94.005 C 98.524 92.631 98.333 91.424 98.848 90.728 C 99.166 90.306 99.643 90.123 100.298 90.245 C 101.3 90.43 102.532 90.462 103.864 90.386 C 101.165 88.58 98.328 87.042 95.405 85.814 C 89.534 83.348 83.331 82.125 77.231 82.424 C 72.022 82.684 66.933 83.938 62.25 86.072 C 55.311 89.239 49.278 94.347 45.105 101.017 C 40.945 107.674 38.635 115.894 39.12 125.312 C 39.363 130.065 40.318 135.124 42.106 140.445 C 42.525 141.452 42.889 142.381 43.259 143.314 C 46.213 150.801 49.336 158.73 58.204 159.053 C 64.088 159.265 64.187 152.873 64.257 148.396 C 64.286 146.551 64.311 144.988 64.7 143.989 C 65.127 142.902 65.852 142.444 67.068 142.89 C 68.978 143.588 70.055 146.388 71.323 149.693 C 73.234 154.679 75.675 161.047 81.311 160.265 C 89.136 159.178 94.208 142.074 100.191 134.507 C 101.502 132.853 102.762 131.977 103.951 131.78 C 105.351 131.551 106.576 132.191 107.614 133.577 C 109.064 135.514 110.09 139.115 110.632 143.923 C 110.875 146.076 111.064 148.448 111.258 150.92 C 112.524 166.962 113.083 187.512 134.667 185.966 C 134.827 185.957 134.987 185.984 135.135 186.045 C 135.209 183.892 135.149 182.021 134.876 180.602 C 134.719 180.641 134.547 180.639 134.372 180.589 C 134.328 180.576 120.761 176.712 126.645 141.69 L 126.645 141.69 Z " fill-rule="evenodd" fill="rgb(243,134,54)"/><path d=" M 88.85 163.321 C 85.853 174.312 80.47 179.967 74.429 182.404 C 70.624 183.94 66.539 184.211 62.618 183.745 C 58.667 183.272 54.886 182.052 51.714 180.614 C 47.684 178.792 44.716 176.822 43.819 175.738 C 44.231 175.822 44.768 175.983 45.353 176.156 C 47.329 176.735 49.764 177.444 51.57 176.617 C 54.23 175.403 55.104 171.044 49.901 158.433 C 52.104 160.166 54.853 161.272 58.414 161.399 C 66.231 161.687 66.349 154.067 66.434 148.732 C 66.459 147.125 66.482 145.759 66.712 145.156 C 67.492 145.576 68.336 147.775 69.328 150.356 C 71.563 156.19 74.418 163.634 81.859 162.604 C 86.29 161.987 89.063 159.019 91.177 155.303 C 90.416 157.758 89.641 160.425 88.85 163.321 Z " fill-rule="evenodd" fill="rgb(254,254,254)"/><path d=" M 154.794 35.41 C 153.813 34.49 152.794 34.451 151.7 35.54 C 148.944 38.285 145.893 44.414 143.145 51.023 C 140.425 57.568 137.989 64.59 136.443 69.227 C 136.444 69.231 136.442 69.238 136.442 69.241 C 134.784 69.874 133.064 70.579 131.285 71.365 C 135.478 62.099 148.045 34.472 150.777 30.626 C 153.163 27.264 154.741 26.345 155.796 27.044 C 158.146 28.598 159.472 36.581 160.905 45.18 C 161.914 51.242 162.975 57.595 164.59 62.525 C 164.84 63.28 165.209 63.917 165.677 64.454 C 164.801 64.377 163.881 64.32 162.909 64.284 C 160.761 59.612 159.47 52.9 158.371 47.204 C 157.292 41.591 156.391 36.904 154.794 35.41 Z " fill-rule="evenodd" fill="rgb(243,134,54)"/><path d=" M 145.15 52.21 C 147.812 45.808 150.731 39.91 153.279 37.373 C 153.447 37.205 153.476 37.089 153.492 37.106 C 154.436 37.987 155.259 42.267 156.246 47.391 C 157.307 52.909 158.543 59.346 160.615 64.253 C 155.003 64.293 147.951 65.215 139.187 68.246 C 140.708 63.751 142.829 57.79 145.15 52.21 Z " fill-rule="evenodd" fill="rgb(152,72,53)"/><path d=" M 187.71 71.744 C 193.482 66.876 214.043 49.654 216.11 49.578 C 216.236 49.744 215.475 50.488 215.228 51.929 C 214.844 54.136 214.105 57.183 213.18 60.572 C 210.746 69.496 207.071 80.646 205.308 85.213 C 204.819 86.472 204.59 86.939 204.495 86.907 C 204.152 86.785 203.455 85.819 202.47 84.465 C 199.937 80.973 195.816 75.306 187.71 71.744 Z " fill-rule="evenodd" fill="rgb(152,72,53)"/><path d=" M 168.191 160.265 C 170.299 160.217 172.212 160.996 173.602 162.294 C 174.947 163.554 175.803 165.315 175.847 167.29 C 175.893 169.324 175.08 171.2 173.719 172.585 C 172.335 174 170.399 174.904 168.247 174.953 C 166.136 175 164.223 174.218 162.834 172.923 C 161.487 171.662 160.63 169.903 160.586 167.928 C 160.54 165.893 161.359 164.018 162.714 162.633 C 164.099 161.218 166.035 160.313 168.191 160.265 Z " fill-rule="evenodd" fill="rgb(218,196,184)"/><path d=" M 195.025 221.751 C 195.371 221.482 195.9 221.712 196.028 222.098 C 196.154 222.488 195.869 222.984 195.43 222.972 C 195.332 222.972 195.237 222.975 195.143 222.953 C 195.143 222.951 195.14 222.952 195.14 222.952 C 195.078 222.955 195.018 222.956 194.953 222.94 C 194.842 222.921 194.761 222.862 194.677 222.796 C 194.55 222.703 194.483 222.496 194.526 222.347 C 194.557 222.244 194.586 222.146 194.661 222.062 C 194.703 222.01 194.752 221.978 194.805 221.943 C 194.805 221.94 194.808 221.94 194.808 221.94 C 194.872 221.869 194.949 221.812 195.025 221.751 Z " fill-rule="evenodd" fill="rgb(87,47,46)"/><path d=" M 197.499 220.23 C 197.202 220.469 196.849 220.073 196.986 219.777 C 197.413 218.825 197.929 217.92 198.323 216.951 C 198.765 215.867 199.048 214.723 199.283 213.582 C 199.8 211.054 199.862 208.446 199.597 205.89 C 199.331 203.309 198.325 200.478 198.242 198.9 C 198.104 196.246 199.173 196.613 200.554 203.966 C 201.438 208.704 201.189 214.223 198.862 218.534 C 198.5 219.194 198.078 219.758 197.499 220.23 Z " fill-rule="evenodd" fill="rgb(87,47,46)"/><path d=" M 168.793 191.767 C 167.735 192.497 166.411 192.619 165.141 192.659 C 163.9 192.698 162.646 192.543 161.442 192.253 C 158.95 191.66 156.67 190.412 154.648 188.907 C 150.353 185.714 147.146 181.19 144.948 176.448 C 144.16 174.741 143.426 172.976 143.229 171.107 C 143.207 170.892 143.51 170.881 143.586 171.051 C 144.549 173.249 145.379 175.47 146.565 177.576 C 147.878 179.904 149.434 182.135 151.221 184.147 C 154.555 187.893 159.033 191.378 164.366 191.587 C 165.812 191.642 167.213 191.26 168.646 191.282 L 168.646 191.282 C 168.924 191.287 169.016 191.619 168.793 191.767 Z  M 170.751 190.63 C 170.796 190.629 170.842 190.631 170.89 190.629 C 171.24 190.628 171.538 190.892 171.545 191.234 C 171.553 191.579 171.268 191.854 170.918 191.869 C 170.87 191.87 170.824 191.875 170.778 191.876 C 170.749 191.879 170.717 191.885 170.685 191.886 C 170.661 191.887 170.634 191.882 170.614 191.882 C 170.394 191.896 170.199 191.789 170.077 191.625 C 170.07 191.619 170.066 191.613 170.061 191.606 C 170.044 191.582 170.033 191.561 170.017 191.535 C 170.01 191.52 170.006 191.507 169.998 191.494 C 169.987 191.467 169.976 191.441 169.973 191.414 C 169.967 191.405 169.965 191.396 169.964 191.389 C 169.957 191.352 169.948 191.312 169.947 191.271 C 169.946 191.232 169.954 191.192 169.959 191.152 C 169.959 191.146 169.961 191.135 169.966 191.126 C 169.968 191.102 169.978 191.073 169.988 191.049 C 169.996 191.035 169.999 191.019 170.005 191.005 C 170.02 190.98 170.03 190.953 170.046 190.933 C 170.05 190.926 170.054 190.917 170.061 190.911 C 170.176 190.745 170.365 190.627 170.585 190.63 C 170.606 190.63 170.632 190.624 170.657 190.623 C 170.688 190.623 170.721 190.627 170.751 190.63 L 170.751 190.63 L 170.751 190.63 Z  M 146.016 167.52 C 144.037 166.175 142.558 164.857 141.504 163.759 C 141.347 164.442 141.219 165.139 141.125 165.838 C 140.95 167.108 140.873 168.411 140.903 169.748 C 141.064 176.89 144.298 183.288 149.397 187.864 C 154.555 192.48 161.618 195.254 169.363 195.08 C 177.153 194.904 184.141 191.783 189.137 186.879 C 189.534 186.496 189.916 186.094 190.284 185.685 C 190.293 185.674 190.303 185.661 190.319 185.648 C 191.395 184.449 192.362 183.159 193.203 181.794 C 191.135 184.572 188.819 185.296 185.268 185.156 C 180.618 184.979 179.26 187.85 175.701 189.734 C 172.138 191.615 169.156 185.613 163.274 185.461 C 157.394 185.311 154.187 186.14 152.591 182.667 C 150.994 179.193 152.72 175.743 149.855 174.955 C 146.997 174.165 146.84 173.706 146.361 171.24 C 145.878 168.772 145.987 168.363 146.016 167.52 L 146.016 167.52 Z " fill-rule="evenodd" fill="rgb(245,170,110)"/><path d=" M 158.167 162.376 C 159.417 156.908 165.879 153.68 172.105 156.437 C 178.425 159.232 180.447 164.782 179.051 170.125 C 178.427 172.511 176.646 173.956 174.866 174.827 C 175.021 174.688 175.168 174.546 175.316 174.399 C 177.045 172.632 178.085 170.204 178.024 167.535 C 177.963 164.804 176.773 162.355 174.895 160.603 C 173.056 158.885 170.567 157.857 167.863 157.917 C 165.201 157.978 162.817 159.081 161.118 160.82 C 160.226 161.731 159.519 162.82 159.05 164.023 C 158.802 163.499 158.51 162.95 158.167 162.376 Z " fill-rule="evenodd" fill="rgb(245,170,110)"/><path d=" M 88.85 163.321 C 85.853 174.312 80.47 179.967 74.429 182.404 C 70.624 183.94 66.539 184.211 62.618 183.745 C 58.667 183.272 54.886 182.052 51.714 180.614 C 47.684 178.792 44.716 176.822 43.819 175.738 C 44.231 175.822 44.768 175.983 45.353 176.156 C 47.113 176.672 49.242 177.291 50.963 176.835 C 62.797 181.869 73.258 173.592 78.485 162.454 C 79.493 162.71 80.61 162.775 81.859 162.604 C 86.29 161.987 89.063 159.019 91.177 155.303 C 90.416 157.758 89.641 160.425 88.85 163.321 Z " fill-rule="evenodd" fill="rgb(218,196,184)"/><path d=" M 100.191 134.507 C 94.208 142.074 89.136 159.178 81.311 160.265 C 80.641 160.358 80.019 160.352 79.434 160.256 C 80.405 157.797 81.127 155.244 81.555 152.689 C 88.145 113.509 116.079 100.836 118.855 158.488 C 119.427 170.377 122.998 173.361 127.283 171.927 C 129.995 179.344 134.345 180.582 134.372 180.589 C 134.547 180.639 134.719 180.641 134.876 180.602 C 135.149 182.021 135.209 183.892 135.135 186.045 C 134.987 185.984 134.827 185.957 134.667 185.966 C 113.083 187.512 112.524 166.962 111.258 150.92 C 111.064 148.448 110.875 146.076 110.632 143.923 C 110.09 139.115 109.064 135.514 107.614 133.577 C 106.576 132.191 105.351 131.551 103.951 131.78 C 102.762 131.977 101.502 132.853 100.191 134.507 Z " fill-rule="evenodd" fill="rgb(203,97,58)"/><path d=" M 172.426 67.717 C 159.136 67.978 143.63 70.546 135.983 76.739 C 127.784 83.371 127.84 85.836 122.616 89.556 C 117.61 93.12 108.549 94.337 102.126 94.396 C 101.697 93.861 101.348 93.354 101.096 92.907 C 101.067 92.854 101.035 92.808 101 92.77 C 102.845 93.011 104.806 92.853 106.762 92.471 C 106.776 92.478 106.785 92.49 106.802 92.499 C 111.954 91.968 115.818 91.023 120.02 88.155 C 122.531 86.436 123.553 84.187 124.656 81.767 C 125.703 79.465 126.832 76.992 129.561 74.819 C 129.596 74.808 129.631 74.793 129.666 74.774 C 151.958 64.225 165.062 66.464 172.276 67.693 C 172.328 67.702 172.376 67.711 172.426 67.717 Z " fill-rule="evenodd" fill="rgb(245,170,110)"/><path d=" M 83.714 86.722 C 83.165 86.484 82.614 86.237 82.033 86.068 C 80.818 85.708 79.542 85.591 78.277 85.575 C 75.456 85.542 72.65 86.058 69.942 86.781 C 64.524 88.232 59.429 90.734 55.263 94.409 C 51.112 98.072 48.066 102.777 46.149 107.867 C 45.18 110.452 44.466 113.152 44.061 115.875 C 43.824 117.463 43.61 119.053 43.522 120.662 C 43.434 122.269 43.711 123.868 43.614 125.464 C 43.596 125.792 43.14 125.97 42.948 125.655 C 42.092 124.271 42.19 122.458 42.252 120.897 C 42.32 119.237 42.546 117.583 42.79 115.939 C 43.218 113.03 43.966 110.171 45.011 107.412 C 47.03 102.074 50.267 97.187 54.654 93.371 C 58.828 89.748 63.923 87.304 69.294 85.823 C 71.993 85.082 74.798 84.575 77.609 84.525 C 79.898 84.485 82.753 84.752 84.589 86.214 C 84.833 86.411 84.976 86.611 85.113 86.859 C 90.632 87.487 95.495 89.096 98.972 90.582 C 99.285 90.264 99.723 90.139 100.298 90.245 C 101.3 90.43 102.532 90.462 103.864 90.386 C 101.165 88.58 98.328 87.042 95.405 85.814 C 89.534 83.348 83.331 82.125 77.231 82.424 C 72.022 82.684 66.933 83.938 62.25 86.072 C 55.311 89.239 49.278 94.347 45.105 101.017 C 40.945 107.674 38.635 115.894 39.12 125.312 C 39.363 130.065 40.318 135.124 42.106 140.445 C 42.525 141.452 42.889 142.381 43.259 143.314 C 45.042 147.837 46.89 152.523 50.03 155.596 C 49.204 152.349 48.209 148.604 47.234 144.739 C 44.525 133.986 40.565 109.609 57.493 95.003 L 57.493 95.003 C 65.999 87.668 75.495 86.05 83.714 86.722 Z  M 43.397 127.868 C 43.416 127.845 43.432 127.829 43.451 127.807 C 43.556 127.7 43.695 127.643 43.841 127.632 C 43.888 127.621 43.934 127.615 43.985 127.619 C 43.953 127.615 44.136 127.625 44.196 127.641 C 44.355 127.688 44.413 127.726 44.542 127.829 C 44.637 127.914 44.702 128.026 44.742 128.145 C 44.78 128.274 44.783 128.406 44.75 128.536 C 44.697 128.684 44.677 128.754 44.561 128.867 C 44.411 129.021 44.236 129.073 44.028 129.094 C 43.957 129.103 43.86 129.087 43.773 129.061 C 43.734 129.055 43.698 129.048 43.658 129.038 C 43.36 128.974 43.142 128.698 43.136 128.408 C 43.13 128.195 43.233 127.996 43.397 127.868 L 43.397 127.868 Z " fill-rule="evenodd" fill="rgb(245,170,110)"/><path d=" M 138.724 169.501 C 138.902 177.426 142.488 184.525 148.143 189.591 C 153.739 194.609 161.367 197.614 169.691 197.427 C 177.826 197.244 185.133 194.04 190.426 188.99 C 190.57 189.898 190.732 190.909 190.901 191.942 C 191.453 195.361 197.188 217.256 191.788 217.507 C 188.371 217.663 183.359 211.502 178.522 205.559 C 170.233 195.368 159.704 197.161 151.219 205.907 C 147.985 209.239 136.588 222.907 136.315 210.759 C 136.091 200.793 139.98 188.015 136.555 178.755 C 134.78 173.967 134.591 165.196 135.295 156.175 C 135.377 155.095 135.49 154.013 135.633 152.935 C 135.92 157.511 137.079 162.332 138.786 166.916 C 138.724 167.77 138.705 168.635 138.724 169.501 Z " fill-rule="evenodd" fill="rgb(203,97,58)"/><path d=" M 152.48 102.343 C 154.154 102.13 155.631 102.256 155.779 102.625 C 155.928 102.995 154.692 103.466 153.018 103.681 C 151.345 103.894 149.868 103.768 149.719 103.398 C 149.57 103.03 150.806 102.557 152.48 102.343 Z " fill-rule="evenodd" fill="rgb(254,254,254)"/></g></svg>